PathFileType	4	(x/y/z)	S02_P20_T25
DataRate	CameraRate	NumFrames	NumMarkers	Units	OrigDataRate	OrigDataStartFrame	OrigNumFrames
240	240	9	51	mm	240	182	362
Frame#	Time	Sternum			R.Acromium			L.Acromium			Top.Head			R.ASIS			L.ASIS			R.PSIS			L.PSIS			R.Great.Tro			L.Great.Tro			R.Iliac.Crest			L.Iliac.Crest			V.Sacral			R.Thigh.Upper.Post			R.Thigh.Lower.Ant			R.Thigh.Lower.Post			R.Thigh.Upper.Ant			R.Knee.Lat			R.Knee.Med			R.Shank.Upper.Post			R.Shank.Lower.Ant			R.Shank.Lower.Post			R.Shank.Upper.Ant			R.Ankle.Lat			R.Ankle.Med			R.Heel.Upper			R.Heel.Med			R.Heel.Lat			R.Toe.Lat			R.Toe.Med			R.Toe.Tip			L.Thigh.Upper.Post			L.Thigh.Lower.Ant			L.Thigh.Lower.Post			L.Thigh.Upper.Ant			L.Knee.Lat			L.Knee.Med			L.Shank.Upper.Post			L.Shank.Lower.Ant			L.Shank.Lower.Post			L.Shank.Upper.Ant			L.Ankle.Lat			L.Ankle.Med			L.Heel.Upper			L.Heel.Med			L.Heel.Lat			L.Toe.Lat			L.Toe.Med			L.Toe.Tip			Cervical.Spine			Back			
		X1	Y1	Z1	X2	Y2	Z2	X3	Y3	Z3	X4	Y4	Z4	X5	Y5	Z5	X6	Y6	Z6	X7	Y7	Z7	X8	Y8	Z8	X9	Y9	Z9	X10	Y10	Z10	X11	Y11	Z11	X12	Y12	Z12	X13	Y13	Z13	X14	Y14	Z14	X15	Y15	Z15	X16	Y16	Z16	X17	Y17	Z17	X18	Y18	Z18	X19	Y19	Z19	X20	Y20	Z20	X21	Y21	Z21	X22	Y22	Z22	X23	Y23	Z23	X24	Y24	Z24	X25	Y25	Z25	X26	Y26	Z26	X27	Y27	Z27	X28	Y28	Z28	X29	Y29	Z29	X30	Y30	Z30	X31	Y31	Z31	X32	Y32	Z32	X33	Y33	Z33	X34	Y34	Z34	X35	Y35	Z35	X36	Y36	Z36	X37	Y37	Z37	X38	Y38	Z38	X39	Y39	Z39	X40	Y40	Z40	X41	Y41	Z41	X42	Y42	Z42	X43	Y43	Z43	X44	Y44	Z44	X45	Y45	Z45	X46	Y46	Z46	X47	Y47	Z47	X48	Y48	Z48	X49	Y49	Z49	X50	Y50	Z50	X51	Y51	Z51	

182	0.75417	-305.3	1117	337.71	-415.52	1347.4	492.62	-426.32	1356.7	198.91	-341.27	1631.7	335.31	-345.6	937.81	439.59	-337.94	933.29	230.44	-554.37	984.43	386.15	-558.32	987.84	312.49	-420.37	825.32	527.95	-462	838.3	145.42	-441.74	984.88	500.21	-460.86	985.04	167.37	-585	940.41	344.92	-406.32	615.29	500.04	-353.65	540.17	454.99	-422.1	528.66	478.64	-342.28	626.84	475.83	-407.33	451.7	456.81	-424.94	445.68	314.72	-515.68	258.88	439.43	-454.61	168.83	416.38	-520.06	186.09	427.85	-446.02	236.36	434.88	-520.57	92.506	411.05	-512.09	106.65	327.14	-583.2	79.379	356.89	-570.28	47.095	328.61	-580.1	47.82	392.39	-418.67	39.593	433.15	-386.13	33.028	326.17	-337.16	59.082	381.79	-394.07	608.52	161.23	-294.26	561.94	150.74	-358.52	526.24	179.99	-337.36	646.45	136.85	-290.56	478.41	159.21	-261.01	481.42	299.6	-445.55	385.39	192.49	-440.34	274.29	197.97	-488.12	328.05	212.61	-402.12	338.48	179.41	-531.3	219.79	224.52	-510.39	207.47	303.78	-588.49	232.58	270.33	-594.44	209.37	305.92	-608.91	209.75	245.07	-502.12	91.191	195.27	-462.72	84.085	297.04	-415.11	56.091	242.67	-495.84	1412.1	352.25	-564.29	1157.3	353.54
183	0.75833	-300.13	1117.8	337.75	-410.28	1348.2	492.63	-421.2	1357.3	198.93	-335.93	1632.2	335.31	-340.8	938.52	439.94	-332.57	934.36	230.94	-549.21	985.01	385.68	-553.02	988.65	312.04	-416.11	825.53	527.69	-456.12	839.49	145.15	-437.11	985.48	500.06	-455.19	986.22	167.34	-579.8	941.14	344.26	-403.98	615.47	499.79	-351.96	539.82	454.88	-420.56	528.98	478.4	-339.74	626.36	475.71	-406.54	451.85	456.67	-424.16	445.87	314.47	-515.5	259.28	439.13	-454.53	169.11	416.38	-519.96	186.49	427.6	-445.85	236.65	434.83	-520.4	92.768	410.96	-511.87	106.9	327.07	-583.01	79.745	356.8	-570.18	47.403	328.52	-580.01	48.187	392.3	-418.63	39.61	433.12	-386.14	32.998	326.18	-337.09	59.008	381.8	-386.58	609.67	161.09	-286.37	563.81	151.1	-350.49	527.66	180.12	-330.06	647.96	136.84	-281.96	480.2	159.87	-252.78	483.85	300.08	-435.31	383.52	192.52	-427.43	272.65	198.27	-476.41	325.28	212.51	-390.72	337.67	179.77	-517.3	216.1	224.58	-496.19	204.27	303.88	-575.02	227.12	270.31	-580.32	203.58	305.73	-594.66	203.75	244.96	-484.38	88.469	195.2	-444.93	82.405	297.03	-396.45	55.913	242.71	-490.53	1412.6	352.27	-559.02	1157.9	353.74
184	0.7625	-294.96	1118.5	337.8	-405.05	1348.9	492.65	-416.06	1357.9	198.93	-330.6	1632.6	335.3	-336	939.21	440.28	-327.21	935.37	231.43	-544.08	985.52	385.16	-547.73	989.37	311.55	-411.82	825.7	527.43	-450.2	840.62	144.82	-432.5	986.04	499.88	-449.53	987.29	167.26	-574.59	941.78	343.56	-401.67	615.64	499.55	-350.3	539.46	454.8	-419.04	529.3	478.16	-337.22	625.86	475.62	-405.76	452	456.53	-423.4	446.06	314.23	-515.32	259.67	438.84	-454.44	169.39	416.36	-519.84	186.88	427.36	-445.69	236.94	434.76	-520.23	93.035	410.86	-511.65	107.14	326.99	-582.82	80.112	356.71	-570.07	47.718	328.42	-579.91	48.558	392.2	-418.59	39.625	433.09	-386.16	32.969	326.2	-337.02	58.934	381.82	-379.21	610.76	160.99	-278.62	565.58	151.48	-342.61	529.01	180.29	-322.86	649.38	136.84	-273.52	481.9	160.56	-244.76	486.17	300.58	-425.08	381.51	192.56	-414.45	270.93	198.57	-464.65	322.38	212.42	-379.33	336.77	180.13	-503.15	212.32	224.62	-481.85	200.97	303.96	-561.36	221.53	270.28	-565.97	197.67	305.53	-580.2	197.61	244.83	-466.49	85.768	195.1	-426.98	80.754	296.97	-377.68	55.814	242.7	-485.22	1413.1	352.27	-553.75	1158.4	353.92
185	0.76667	-289.79	1119.2	337.86	-399.83	1349.5	492.65	-410.91	1358.4	198.91	-325.26	1633	335.28	-331.21	939.86	440.62	-321.85	936.3	231.92	-538.96	985.95	384.62	-542.46	990	311.03	-407.49	825.84	527.17	-444.23	841.68	144.44	-427.89	986.54	499.69	-443.88	988.27	167.14	-569.39	942.32	342.83	-399.37	615.8	499.32	-348.66	539.11	454.74	-417.54	529.62	477.94	-334.71	625.35	475.54	-404.98	452.16	456.41	-422.65	446.23	314.01	-515.11	260.07	438.56	-454.35	169.68	416.33	-519.71	187.27	427.13	-445.51	237.23	434.68	-520.06	93.307	410.76	-511.43	107.38	326.89	-582.64	80.479	356.62	-569.94	48.04	328.33	-579.82	48.931	392.1	-418.54	39.638	433.06	-386.17	32.942	326.21	-336.95	58.86	381.83	-371.96	611.78	160.94	-271.04	567.24	151.89	-334.88	530.29	180.52	-315.78	650.7	136.87	-265.23	483.52	161.27	-236.95	488.37	301.1	-414.84	379.37	192.59	-401.42	269.16	198.86	-452.84	319.35	212.32	-367.94	335.8	180.48	-488.87	208.44	224.63	-467.36	197.59	304.01	-547.52	215.81	270.22	-551.41	191.67	305.33	-565.53	191.37	244.7	-448.44	83.104	194.95	-408.89	79.146	296.87	-358.82	55.806	242.64	-479.89	1413.5	352.26	-548.49	1158.9	354.07
186	0.77083	-284.61	1119.9	337.92	-394.62	1350.1	492.66	-405.75	1358.8	198.88	-319.93	1633.3	335.26	-326.41	940.47	440.95	-316.51	937.16	232.39	-533.87	986.29	384.04	-537.2	990.54	310.48	-403.14	825.93	526.93	-438.22	842.67	144.01	-423.29	986.98	499.47	-438.23	989.14	166.99	-564.19	942.77	342.07	-397.1	615.96	499.11	-347.04	538.74	454.71	-416.06	529.94	477.73	-332.23	624.83	475.5	-404.21	452.32	456.31	-421.89	446.39	313.8	-514.89	260.46	438.31	-454.26	169.96	416.28	-519.56	187.66	426.91	-445.34	237.52	434.59	-519.88	93.584	410.66	-511.22	107.62	326.78	-582.45	80.845	356.51	-569.8	48.37	328.25	-579.72	49.306	392.01	-418.5	39.647	433.03	-386.18	32.92	326.22	-336.88	58.786	381.85	-364.83	612.72	160.93	-263.6	568.77	152.33	-327.32	531.48	180.79	-308.81	651.91	136.92	-257.09	485.05	162.01	-229.35	490.43	301.64	-404.61	377.1	192.63	-388.34	267.34	199.13	-440.99	316.21	212.23	-356.55	334.76	180.83	-474.44	204.49	224.61	-452.73	194.13	304.03	-533.48	209.99	270.15	-536.61	185.58	305.12	-550.63	185.03	244.55	-430.25	80.492	194.77	-390.66	77.596	296.73	-339.88	55.899	242.53	-474.57	1413.9	352.24	-543.23	1159.3	354.21
187	0.775	-279.43	1120.4	337.98	-389.41	1350.6	492.66	-400.57	1359.2	198.85	-314.6	1633.6	335.22	-321.61	941.03	441.25	-311.17	937.93	232.83	-528.79	986.56	383.44	-531.95	991	309.9	-398.78	825.98	526.71	-432.17	843.6	143.52	-418.69	987.36	499.23	-432.58	989.9	166.8	-559	943.13	341.29	-394.85	616.11	498.9	-345.44	538.37	454.71	-414.6	530.26	477.53	-329.78	624.3	475.49	-403.45	452.49	456.22	-421.11	446.53	313.62	-514.65	260.85	438.07	-454.17	170.26	416.21	-519.4	188.04	426.7	-445.16	237.81	434.5	-519.71	93.864	410.56	-511	107.85	326.66	-582.27	81.21	356.39	-569.66	48.707	328.16	-579.62	49.682	391.9	-418.46	39.654	433.01	-386.18	32.902	326.24	-336.81	58.711	381.87	-357.82	613.59	160.96	-256.32	570.19	152.8	-319.92	532.58	181.11	-301.95	653.01	136.99	-249.12	486.49	162.77	-221.97	492.36	302.2	-394.36	374.71	192.68	-375.2	265.49	199.38	-429.08	312.95	212.13	-345.17	333.65	181.17	-459.87	200.49	224.56	-437.95	190.61	304.02	-519.25	204.08	270.06	-521.59	179.44	304.9	-535.52	178.62	244.39	-411.91	77.945	194.54	-372.3	76.119	296.54	-320.86	56.104	242.37	-469.23	1414.2	352.2	-537.97	1159.7	354.33
188	0.77917	-274.25	1121	338.04	-384.19	1351.1	492.65	-395.38	1359.5	198.79	-309.27	1633.8	335.18	-316.8	941.53	441.53	-305.84	938.61	233.25	-523.72	986.74	382.81	-526.71	991.36	309.3	-394.39	825.99	526.5	-426.08	844.45	142.99	-414.09	987.68	498.97	-426.93	990.56	166.58	-553.81	943.4	340.48	-392.62	616.26	498.72	-343.86	537.99	454.75	-413.16	530.59	477.35	-327.34	623.76	475.5	-402.69	452.67	456.14	-420.3	446.66	313.46	-514.4	261.23	437.86	-454.08	170.55	416.14	-519.23	188.42	426.5	-444.98	238.11	434.41	-519.53	94.147	410.45	-510.78	108.09	326.53	-582.09	81.572	356.27	-569.5	49.053	328.08	-579.52	50.058	391.8	-418.42	39.658	432.98	-386.17	32.89	326.25	-336.74	58.637	381.9	-350.94	614.38	161.04	-249.2	571.48	153.29	-312.69	533.58	181.46	-295.21	654	137.1	-241.3	487.82	163.55	-214.81	494.13	302.78	-384.1	372.21	192.72	-362	263.6	199.62	-417.11	309.6	212.03	-333.79	332.49	181.51	-445.15	196.43	224.48	-423.03	187.04	303.97	-504.81	198.1	269.93	-506.33	173.25	304.66	-520.17	172.16	244.2	-393.45	75.477	194.28	-353.83	74.73	296.31	-301.78	56.429	242.15	-463.89	1414.4	352.14	-532.71	1159.9	354.43
189	0.78333	-269.07	1121.4	338.1	-378.97	1351.4	492.64	-390.18	1359.7	198.73	-303.94	1634	335.12	-311.97	941.97	441.79	-300.51	939.21	233.64	-518.66	986.85	382.16	-521.47	991.63	308.67	-390	825.96	526.3	-419.95	845.23	142.41	-409.48	987.92	498.69	-421.29	991.11	166.33	-548.63	943.58	339.66	-390.4	616.4	498.55	-342.3	537.61	454.81	-411.72	530.91	477.19	-324.92	623.21	475.55	-401.94	452.85	456.09	-419.46	446.77	313.32	-514.13	261.61	437.66	-453.97	170.84	416.06	-519.04	188.8	426.31	-444.78	238.4	434.33	-519.35	94.432	410.35	-510.55	108.31	326.39	-581.92	81.933	356.14	-569.35	49.408	328	-579.42	50.436	391.69	-418.39	39.657	432.96	-386.15	32.884	326.27	-336.66	58.564	381.92	-344.19	615.08	161.15	-242.22	572.64	153.81	-305.62	534.49	181.85	-288.57	654.88	137.23	-233.66	489.06	164.35	-207.86	495.76	303.37	-373.83	369.6	192.77	-348.76	261.71	199.84	-405.09	306.17	211.93	-322.42	331.28	181.83	-430.28	192.36	224.36	-407.96	183.45	303.88	-490.17	192.07	269.78	-490.84	167.04	304.4	-504.6	165.67	243.99	-374.85	73.103	193.98	-335.26	73.442	296.05	-282.66	56.883	241.89	-458.54	1414.5	352.07	-527.45	1160.2	354.51
190	0.7875	-263.89	1121.8	338.15	-373.74	1351.8	492.61	-384.96	1359.9	198.66	-298.6	1634.1	335.05	-307.13	942.34	442.01	-295.18	939.72	234	-513.62	986.87	381.49	-516.24	991.82	308.03	-385.6	825.9	526.13	-413.79	845.92	141.79	-404.87	988.08	498.39	-415.65	991.56	166.06	-543.45	943.68	338.82	-388.2	616.53	498.4	-340.75	537.23	454.9	-410.3	531.24	477.04	-322.51	622.66	475.63	-401.19	453.04	456.06	-418.56	446.86	313.22	-513.84	261.99	437.48	-453.86	171.14	415.98	-518.84	189.18	426.12	-444.58	238.69	434.24	-519.17	94.72	410.24	-510.32	108.54	326.24	-581.74	82.294	356	-569.18	49.77	327.92	-579.31	50.815	391.58	-418.35	39.653	432.94	-386.1	32.885	326.29	-336.59	58.492	381.95	-337.56	615.69	161.3	-235.4	573.66	154.36	-298.73	535.29	182.26	-282.05	655.64	137.39	-226.17	490.19	165.16	-201.11	497.22	303.98	-363.53	366.9	192.81	-335.47	259.81	200.05	-393	302.67	211.82	-311.05	330.04	182.13	-415.27	188.27	224.22	-392.75	179.84	303.76	-475.32	186	269.58	-475.12	160.84	304.11	-488.8	159.16	243.74	-356.14	70.835	193.64	-316.59	72.271	295.76	-263.5	57.475	241.6	-453.19	1414.6	351.99	-522.19	1160.3	354.58
